<svg xmlns="http://www.w3.org/2000/svg" xmlns:xlink="http://www.w3.org/1999/xlink" width="200" height="200" viewBox="0 0 200 200">
    <defs>
        <path id="a"
            d="M73.545 69.266c-6.53-6.345-9.854-11.502-9.97-15.469-.105-3.618-.16-10.798-.163-21.539-.004-12.665-9.033-23.23-21.034-25.672.017-.176.025-.353.025-.532 0-3.183-2.594-5.763-5.794-5.763-3.2 0-5.795 2.58-5.795 5.763 0 .208.012.414.033.617C18.97 9.282 10.126 19.866 10.218 32.458c.078 10.582.116 17.528.116 20.835 0 5.541-3.388 10.841-10.163 15.9 12.98 3.162 23.363 5.077 31.146 5.744a5.797 5.797 0 0 0 5.292 3.412 5.797 5.797 0 0 0 5.26-3.345c5.208-.396 15.766-2.309 31.676-5.738z" />
    </defs>
    <g fill="none" fill-rule="evenodd" transform="rotate(18 40.742 83.449) translate(65 30) scale(1.1)">
        <use fill="#FFF" xlink:href="#a" />
        <path stroke="#2397F2" stroke-width="2.612"
            d="M42.684 76.246a7.105 7.105 0 0 1-6.075 3.409 7.105 7.105 0 0 1-6.119-3.48c-7.775-.727-17.98-2.632-30.629-5.713l-2.694-.656 2.222-1.66c6.476-4.834 9.64-9.783 9.64-14.853 0-3.303-.04-10.246-.117-20.825C8.819 19.78 17.428 8.8 29.52 5.648c.212-3.717 3.306-6.663 7.089-6.663 3.746 0 6.817 2.89 7.081 6.556 12.22 2.985 21.024 13.95 21.028 26.717.004 10.728.058 17.9.163 21.501.103 3.532 3.268 8.443 9.574 14.57l1.75 1.7-2.385.514c-15.278 3.293-25.638 5.193-31.136 5.703z" />
        <path stroke="#2296F3" stroke-linecap="square" stroke-width="2.322"
            d="M23.501 75.271c4.934.743 9.236 1.082 12.908 1.017 3.671-.064 7.355-.205 11.05-.422" />
        <path fill="#1F96F5"
            d="M10.217 35.626c9.074 2.63 17.978 3.957 26.71 3.98 8.734.023 17.572-1.257 26.514-3.84l.582 15.386c-8.48 2.046-17.513 3.173-27.1 3.38-9.586.208-18.64-.645-27.162-2.56l.456-16.346z" />
        <ellipse cx="15.318" cy="41.621" fill="#FFF" rx="2.487" ry="2.476" />
        <ellipse cx="15.031" cy="48.667" fill="#FFF" rx="2.487" ry="2.476" />
        <path fill="#FFF"
            d="M22.624 41.039c4.624.635 9.933.842 15.927.62 6.258-.23 12.893-.907 19.904-2.029a1.607 1.607 0 0 1 1.86 1.587 2.15 2.15 0 0 1-1.88 2.132c-9.481 1.197-16.193 1.88-20.136 2.05-3.838.164-9.048-.06-15.63-.674-1.072-.1-1.892-1-1.892-2.076a1.626 1.626 0 0 1 1.847-1.61zM22.624 47.737c4.624.636 9.933.843 15.927.622 6.258-.231 12.893-.908 19.904-2.03a1.607 1.607 0 0 1 1.86 1.587 2.15 2.15 0 0 1-1.88 2.132c-9.481 1.197-16.193 1.88-20.136 2.05-3.838.164-9.048-.06-15.63-.674-1.072-.1-1.892-1-1.892-2.076a1.626 1.626 0 0 1 1.847-1.61z" />
    </g>
    <circle fill="#c7e3ff" cx="50" cy="50" r="10" />
    <circle fill="#c7e3ff" cx="83" cy="175" r="10" />
    <circle fill="#c7e3ff" cx="180" cy="140" r="10" />

    <circle fill="#c7e3ff" cx="125" cy="25" r="7" />
    <circle fill="#c7e3ff" cx="180" cy="75" r="7" />

    <circle fill="#c7e3ff" cx="30" cy="130" r="6" />
</svg>