<svg xmlns="http://www.w3.org/2000/svg" xmlns:xlink="http://www.w3.org/1999/xlink" width="45" height="46" viewBox="0 0 45 46">
    <defs>
        <path id="a" d="M43.835 41.515c.065-.065.056-.11.022-.131-3.551-2.321-5.375-5.124-5.47-8.41-.057-1.997-.087-5.961-.089-11.891-.002-6.993-4.935-12.826-11.492-14.174a3.174 3.174 0 0 0-3.153-3.475 3.174 3.174 0 0 0-3.148 3.522c-6.49 1.442-11.323 7.285-11.272 14.237.042 5.843.063 9.677.063 11.503 0 3.06-1.85 5.985-5.553 8.779 7.093 1.745 12.766 2.802 17.019 3.17a3.166 3.166 0 0 0 2.89 1.884 3.166 3.166 0 0 0 2.875-1.846c4.269-.328 10.038-1.384 17.308-3.168z"/>
        <path id="c" d="M40.186 47.242c.065-.065.055-.11.022-.131-3.552-2.321-5.375-5.124-5.47-8.41-.057-1.997-.087-5.961-.09-11.891-.001-6.993-4.935-12.826-11.492-14.174a3.174 3.174 0 0 0-3.153-3.475 3.174 3.174 0 0 0-3.148 3.522c-6.49 1.442-11.322 7.285-11.272 14.237.043 5.843.064 9.677.064 11.503 0 3.06-1.851 5.985-5.554 8.779 7.093 1.745 12.766 2.803 17.019 3.171a3.166 3.166 0 0 0 2.891 1.883 3.166 3.166 0 0 0 2.875-1.846c4.268-.328 10.037-1.384 17.308-3.168z"/>
    </defs>
    <g fill="none" fill-rule="evenodd" transform="translate(3 -2)">
        <mask id="b" fill="#fff">
            <use xlink:href="#a"/>
        </mask>
        <g transform="rotate(11 23.813 24.981)">
            <use fill="#FFF" xlink:href="#a"/>
            <path stroke="#1E70B2" stroke-width="1.44" d="M26.978 45.369a3.882 3.882 0 0 1-3.325 1.88 3.882 3.882 0 0 1-3.35-1.922c-4.248-.401-9.823-1.453-16.732-3.153l-1.47-.362 1.208-.912c3.538-2.67 5.267-5.403 5.267-8.204 0-1.824-.02-5.657-.063-11.498-.05-7 4.652-13.062 11.26-14.805a3.893 3.893 0 0 1 3.88-3.68 3.893 3.893 0 0 1 3.876 3.621c6.679 1.65 11.487 7.703 11.49 14.749.001 5.923.031 9.882.088 11.87.088 3.03 1.777 5.628 5.144 7.828.482.315.44.9.091 1.245l-.142.14-.193.048c-7.085 1.738-12.758 2.79-17.03 3.155z"/>
        </g>
        <g mask="url(#b)">
            <g transform="rotate(11 55.93 46.75)">
                <use fill="#FFF" xlink:href="#c"/>
                <path stroke="#1E70B2" stroke-width="1.44" d="M23.328 51.096a3.882 3.882 0 0 1-3.325 1.88 3.882 3.882 0 0 1-3.349-1.922c-4.248-.401-9.824-1.453-16.733-3.153l-1.47-.362 1.209-.912c3.538-2.67 5.267-5.403 5.267-8.204 0-1.824-.021-5.657-.064-11.498-.05-7 4.652-13.062 11.26-14.805a3.893 3.893 0 0 1 3.88-3.68 3.893 3.893 0 0 1 3.876 3.621c6.68 1.65 11.488 7.703 11.49 14.749.002 5.923.032 9.882.089 11.87.087 3.03 1.777 5.628 5.144 7.828.481.315.44.9.09 1.245l-.141.14-.194.048c-7.084 1.738-12.758 2.79-17.029 3.155z"/>
                <path stroke="#1E70B2" stroke-linecap="square" stroke-width="1.28" d="M12.841 50.557c2.696.41 5.047.597 7.053.562 2.006-.036 4.019-.113 6.038-.233"/>
                <path fill="#1E70B2" d="M5.583 28.67c4.958 1.451 9.823 2.184 14.595 2.196 4.772.013 9.6-.693 14.487-2.12l.318 8.495c-4.634 1.13-9.57 1.752-14.808 1.867-5.238.114-10.185-.357-14.842-1.414l.25-9.025z"/>
                <ellipse cx="8.37" cy="31.979" fill="#FFF" rx="1.359" ry="1.367"/>
                <ellipse cx="8.213" cy="35.869" fill="#FFF" rx="1.359" ry="1.367"/>
                <path fill="#FFF" d="M12.372 31.659c2.524.35 5.422.463 8.693.341 3.416-.127 7.038-.5 10.865-1.118a.886.886 0 0 1 1.027.874c0 .598-.444 1.103-1.038 1.179-5.175.66-8.84 1.036-10.992 1.13-2.095.09-4.938-.033-8.53-.371a1.152 1.152 0 0 1-1.044-1.148.896.896 0 0 1 1.019-.887zM12.372 35.357c2.524.35 5.422.464 8.693.342 3.416-.128 7.038-.5 10.865-1.119a.886.886 0 0 1 1.027.874c0 .599-.444 1.103-1.038 1.18-5.175.659-8.84 1.036-10.992 1.129-2.095.09-4.938-.033-8.53-.37a1.152 1.152 0 0 1-1.044-1.148.896.896 0 0 1 1.019-.888z"/>
                <path fill="#1E70B2" fill-opacity=".181" d="M19.196 7.944l37.39 6.65 8.413 36.443c.522 2.263.967 3.01.84 3.636-.165.808-.485 1.787-.884 2.8a8.568 8.568 0 0 1-2.062 3.095L21.054 53.51 19.196 7.944z"/>
            </g>
        </g>
    </g>
</svg>
