<svg viewBox="0 0 100 10" xmlns="http://www.w3.org/2000/svg">
    <path fill="#0a467f" stroke="#0a467f" d="M 0,0 
        L 100,0 
        L 100,5 
        S 75,0 50,5
        S 25,10 0,5
        L 0,0"/>
    <!-- large circle -->
    <!-- <circle fill="#03c580" cx="0.3" cy="9" r="0.6" />
    <circle fill="#03c580" cx="5" cy="17" r="0.6" />
    <circle fill="#03c580" cx="11" cy="14" r="0.6" />
    <circle fill="#03c580" cx="15" cy="21" r="0.6" />
    <circle fill="#03c580" cx="20.5" cy="18" r="0.6" />
    <circle fill="#03c580" cx="25" cy="24" r="0.6" />
    <circle fill="#03c580" cx="32" cy="28" r="0.6" />
    <circle fill="#03c580" cx="37" cy="22" r="0.6" />
    <circle fill="#03c580" cx="43" cy="27" r="0.6" />
    <circle fill="#03c580" cx="48" cy="14" r="0.6" />
    <circle fill="#03c580" cx="55" cy="21" r="0.6" /> -->
    <!-- Medium circle -->
    <!-- <circle fill="#03c580" cx="2" cy="14.5" r="0.4" />
    <circle fill="#03c580" cx="23.5" cy="20" r="0.4" />
    <circle fill="#03c580" cx="38" cy="27" r="0.4" />
    <circle fill="#03c580" cx="40" cy="22.5" r="0.3" />
    <circle fill="#03c580" cx="48" cy="20" r="0.4" /> -->
    <!-- Small circle -->
    <!-- <circle fill="#03c580" cx="4" cy="11" r="0.25" />
    <circle fill="#03c580" cx="7" cy="13" r="0.25" />
    <circle fill="#03c580" cx="10" cy="19" r="0.25" />
    <circle fill="#03c580" cx="14" cy="16" r="0.25" />
    <circle fill="#03c580" cx="30" cy="26" r="0.25" />
    <circle fill="#03c580" cx="35" cy="23" r="0.25" />
    <circle fill="#03c580" cx="43" cy="19" r="0.25" />
    <circle fill="#03c580" cx="45" cy="16" r="0.25" />
    <circle fill="#03c580" cx="45" cy="24" r="0.25" />
    <circle fill="#03c580" cx="50" cy="24" r="0.25" />
    <circle fill="#03c580" cx="51" cy="15.5" r="0.25" /> -->

</svg>